<?xml version="1.0" encoding="UTF-8"?>
<svg width="44px" height="44px" viewBox="0 0 44 44" version="1.1" xmlns="http://www.w3.org/2000/svg" xmlns:xlink="http://www.w3.org/1999/xlink">
    <!-- Generator: Sketch 45.2 (43514) - http://www.bohemiancoding.com/sketch -->
    <title>social-patreon</title>
    <desc>Created with Sketch.</desc>
    <defs></defs>
    <g id="Mobile" stroke="none" stroke-width="1" fill="none" fill-rule="evenodd">
        <path d="M22,0 C34.1386719,0 44,9.86132812 44,22 C44,34.1386719 34.1386719,44 22,44 C9.86132812,44 0,34.1386719 0,22 C0,9.86132812 9.86132812,0 22,0 Z M25.8079999,13.01003 C21.8575124,13.01003 18.6435025,16.2235623 18.6435025,20.173811 C18.6435025,24.1120994 21.8575124,27.3162386 25.8079999,27.3162386 C29.7462684,27.3162386 32.9502485,24.1120994 32.9502485,20.173811 C32.9502485,16.2235623 29.7462684,13.01003 25.8079999,13.01003 L25.8079999,13.01003 Z M13.0497515,32.0945271 L16.5522389,32.0945271 L16.5522389,13.0099504 L13.0497515,13.0099504 L13.0497515,32.0945271 Z" id="social-patreon" fill="#ADF0D9"></path>
    </g>
</svg>