<?xml version="1.0" encoding="UTF-8"?>
<svg width="44px" height="44px" viewBox="0 0 44 44" version="1.1" xmlns="http://www.w3.org/2000/svg" xmlns:xlink="http://www.w3.org/1999/xlink">
    <!-- Generator: Sketch 45.2 (43514) - http://www.bohemiancoding.com/sketch -->
    <title>social-wattpad</title>
    <desc>Created with Sketch.</desc>
    <defs></defs>
    <g id="Mobile" stroke="none" stroke-width="1" fill="none" fill-rule="evenodd">
        <path d="M22,0 C34.1386719,0 44,9.86132812 44,22 C44,34.1386719 34.1386719,44 22,44 C9.86132812,44 0,34.1386719 0,22 C0,9.86132812 9.86132812,0 22,0 Z M30.9630361,10.1173976 L27.3375422,10.1173976 C26.733012,10.1173976 26.1288193,10.2381687 25.5246265,10.4800482 C24.9200964,10.2381687 24.3159036,10.1173976 23.7117108,10.1173976 L20.0858795,10.1173976 C19.4816867,10.1173976 18.8771566,10.2381687 18.2729639,10.4800482 C17.6687711,10.2381687 17.064241,10.1173976 16.4600482,10.1173976 L12.8342169,10.1173976 C10.1755663,10.1173976 8,12.2929639 8,14.9516145 L8,24.0161928 C8,30.4217831 12.109253,34.2891566 18.8771566,34.2891566 L30.9630361,34.2891566 C33.6220241,34.2891566 35.7975904,32.1135904 35.7975904,29.4549398 L35.7975904,14.9516145 C35.7975904,12.2929639 33.6220241,10.1173976 30.9630361,10.1173976 Z M34.5888675,29.4549398 C34.5888675,31.5093976 33.0178313,33.0804337 30.9630361,33.0804337 L18.8771566,33.0804337 C12.7134458,33.0804337 9.20872289,29.817253 9.20872289,24.0161928 L9.20872289,14.9516145 C9.20872289,12.8971566 10.779759,11.3261205 12.8342169,11.3261205 L16.4600482,11.3261205 C17.064241,11.3261205 17.7895422,11.4468916 18.2729639,11.8095422 C18.7563855,11.4468916 19.4816867,11.3261205 20.0858795,11.3261205 L23.7117108,11.3261205 C24.3159036,11.3261205 25.0412048,11.4468916 25.5246265,11.8095422 C26.0080482,11.4468916 26.733012,11.3261205 27.3375422,11.3261205 L30.9630361,11.3261205 C33.0178313,11.3261205 34.5888675,12.8971566 34.5888675,14.9516145 L34.5888675,29.4549398 Z M18.8771566,29.4549398 L30.9630361,29.4549398 L30.9630361,14.9516145 L27.3375422,14.9516145 L27.3375422,27.037494 L23.7117108,27.037494 L23.7117108,14.9516145 L20.0858795,14.9516145 L20.0858795,27.037494 L18.8771566,27.037494 C17.6687711,27.037494 16.4600482,26.0706506 16.4600482,24.0161928 L16.4600482,14.9516145 L12.8342169,14.9516145 L12.8342169,24.0161928 C12.8342169,27.6420241 14.5263614,29.4549398 18.8771566,29.4549398 Z" id="social-wattpad" fill="#ADF0D9"></path>
    </g>
</svg>