<?xml version="1.0" encoding="UTF-8"?>
<svg width="45px" height="44px" viewBox="0 0 45 44" version="1.1" xmlns="http://www.w3.org/2000/svg" xmlns:xlink="http://www.w3.org/1999/xlink">
    <!-- Generator: Sketch 45.2 (43514) - http://www.bohemiancoding.com/sketch -->
    <title>social-facebook</title>
    <desc>Created with Sketch.</desc>
    <defs></defs>
    <g id="Mobile" stroke="none" stroke-width="1" fill="none" fill-rule="evenodd">
        <path d="M44.5,22 C44.5,9.86132812 34.6386719,0 22.5,0 C10.3613281,0 0.5,9.86132812 0.5,22 C0.5,33.9882812 10.0820312,43.7421875 22.0058594,44 L22.0058594,26.5761719 L17,26.5761719 L17,21.0761719 L22.0058594,21.0761719 L22.0058594,15.5761719 C22.0058594,11.2148438 24.6699219,8.27148438 29.9550781,8.27148438 C32.2753906,8.27148438 33.9082031,8.63671875 33.9082031,8.63671875 L33.9082031,13.75 L30.40625,13.75 C28.7949219,13.75 28,14.6523438 28,16.2421875 L28,21.0761719 L33.5,21.0761719 L32.7050781,26.5761719 L28,26.5761719 L28,43.3125 C37.4960938,40.8632812 44.5,32.2480469 44.5,22 Z" id="social-facebook" fill="#ADF0D9"></path>
    </g>
</svg>