<?xml version="1.0" encoding="UTF-8"?>
<svg width="44px" height="44px" viewBox="0 0 44 44" version="1.1" xmlns="http://www.w3.org/2000/svg" xmlns:xlink="http://www.w3.org/1999/xlink">
    <!-- Generator: Sketch 45.2 (43514) - http://www.bohemiancoding.com/sketch -->
    <title>social-twitter</title>
    <desc>Created with Sketch.</desc>
    <defs></defs>
    <g id="Mobile" stroke="none" stroke-width="1" fill="none" fill-rule="evenodd">
        <path d="M22,0 C34.1816406,0 44,9.81835938 44,22 C44,34.1816406 34.1816406,44 22,44 C9.81835938,44 0,34.1816406 0,22 C0,9.81835938 9.81835938,0 22,0 Z M35.3847656,17.1660156 C36.609375,16.3066406 37.640625,15.1679688 38.5,13.9433594 C37.3828125,14.4160156 36.1582031,14.7597656 34.890625,14.9316406 C36.2011719,14.1582031 37.125,12.9335938 37.5761719,11.4511719 C36.3515625,12.1816406 35.0839844,12.6757812 33.6660156,12.9765625 C32.5488281,11.7734375 30.9160156,11 29.1328125,11 C25.6738281,11 22.9238281,13.7929688 22.9238281,17.2734375 C22.9238281,17.7246094 22.9667969,18.2402344 23.0742188,18.6914062 C17.875,18.4335938 13.234375,15.9414062 10.140625,12.1171875 C9.625,13.0839844 9.32421875,14.1582031 9.32421875,15.2753906 C9.32421875,17.4667969 10.3984375,19.3574219 12.0742188,20.4746094 C11.0429688,20.4746094 10.0761719,20.1738281 9.25976562,19.7011719 L9.25976562,19.765625 C9.25976562,22.8164062 11.4082031,25.3085938 14.265625,25.9316406 C13.75,26.0820312 13.1914062,26.125 12.6328125,26.125 C12.2246094,26.125 11.8164062,26.0820312 11.4511719,26.0175781 C12.2246094,28.5097656 14.5664062,30.2070312 17.2734375,30.25 C15.125,31.9257812 12.4824219,33.1074219 9.51757812,33.1074219 C9.0234375,33.1074219 8.5078125,33.0429688 8.05664062,33 C10.8066406,34.7832031 14.1152344,35.75 17.6171875,35.75 C29.1328125,35.75 35.3847656,26.2324219 35.3847656,17.9824219 L35.3847656,17.1660156 Z" id="social-twitter" fill="#ADF0D9"></path>
    </g>
</svg>