<?xml version="1.0" encoding="UTF-8"?>
<svg width="44px" height="44px" viewBox="0 0 44 44" version="1.1" xmlns="http://www.w3.org/2000/svg" xmlns:xlink="http://www.w3.org/1999/xlink">
    <!-- Generator: Sketch 45.2 (43514) - http://www.bohemiancoding.com/sketch -->
    <title>social-instagram</title>
    <desc>Created with Sketch.</desc>
    <defs></defs>
    <g id="Mobile" stroke="none" stroke-width="1" fill="none" fill-rule="evenodd">
        <path d="M17.4238281,22 C17.4238281,19.4648438 19.4648438,17.4238281 22,17.4238281 C24.5351562,17.4238281 26.5761719,19.4648438 26.5761719,22 C26.5761719,24.5351562 24.5351562,26.5761719 22,26.5761719 C19.4648438,26.5761719 17.4238281,24.5351562 17.4238281,22 Z M32.0761719,12.8261719 L32.0761719,15.5761719 C32.0761719,16.0917969 31.6679688,16.5 31.1738281,16.5 L28.4238281,16.5 C27.9082031,16.5 27.5,16.0917969 27.5,15.5761719 L27.5,12.8261719 C27.5,12.3320312 27.9082031,11.9238281 28.4238281,11.9238281 L31.1738281,11.9238281 C31.6679688,11.9238281 32.0761719,12.3320312 32.0761719,12.8261719 Z M29.1113281,20.1738281 L32.0761719,20.1738281 L32.0761719,31.1738281 C32.0761719,31.6679688 31.6679688,32.0761719 31.1738281,32.0761719 L12.8261719,32.0761719 C12.3320312,32.0761719 11.9238281,31.6679688 11.9238281,31.1738281 L11.9238281,20.1738281 L14.8886719,20.1738281 C14.7382812,20.7539062 14.6738281,21.3769531 14.6738281,22 C14.6738281,26.0390625 17.9394531,29.3261719 22,29.3261719 C26.0605469,29.3261719 29.3261719,26.0390625 29.3261719,22 C29.3261719,21.3769531 29.2617188,20.7539062 29.1113281,20.1738281 Z M22,0 C34.1386719,0 44,9.86132812 44,22 C44,34.1386719 34.1386719,44 22,44 C9.86132812,44 0,34.1386719 0,22 C0,9.86132812 9.86132812,0 22,0 Z M34.8261719,31.1738281 L34.8261719,12.8261719 C34.8261719,10.8066406 33.1933594,9.17382812 31.1738281,9.17382812 L12.8261719,9.17382812 C10.8066406,9.17382812 9.17382812,10.8066406 9.17382812,12.8261719 L9.17382812,31.1738281 C9.17382812,33.1933594 10.8066406,34.8261719 12.8261719,34.8261719 L31.1738281,34.8261719 C33.1933594,34.8261719 34.8261719,33.1933594 34.8261719,31.1738281 Z" id="social-instagram" fill="#ADF0D9"></path>
    </g>
</svg>