<?xml version="1.0" encoding="UTF-8"?>
<svg width="25px" height="20px" viewBox="0 0 25 20" version="1.1" xmlns="http://www.w3.org/2000/svg" xmlns:xlink="http://www.w3.org/1999/xlink">
    <!-- Generator: Sketch 45.2 (43514) - http://www.bohemiancoding.com/sketch -->
    <title>LOGO</title>
    <desc>Created with Sketch.</desc>
    <defs></defs>
    <g id="Mobile" stroke="none" stroke-width="1" fill="none" fill-rule="evenodd">
        <g id="iPhone-7" transform="translate(-175.000000, -30.000000)" fill-rule="nonzero" fill="#6BAD9C">
            <path d="M197.1027,50 C195.637212,50 194.491156,49.3891412 193.664533,48.1674237 C193.307416,47.6413907 193.077272,47.1338874 192.974101,46.6449139 C192.870929,46.1559404 192.715914,44.9154177 192.509056,42.9233456 C192.396335,41.7206537 192.011194,40.8701381 191.353634,40.3717987 C190.696075,39.8734593 189.625222,39.6056129 188.141075,39.5682595 C188.141075,39.5682595 187.762104,39.5348131 187.76093,39.2915247 C187.759756,39.0482362 188.137825,39.0304364 188.137825,39.0304364 C189.94152,39.0304364 191.245651,38.6660478 192.044397,37.9891686 C192.843143,37.3122894 193.242131,36.212953 193.242131,34.6904432 C193.242131,33.8284865 192.974101,30.5461973 190.417265,30.4599208 C189.37076,30.4246082 188.646246,30.6307108 188.183497,31.0053468 C187.720748,31.3799829 187.489209,31.8531078 187.488878,32.4247216 C187.488878,32.5826564 187.609257,32.6615136 187.850016,32.6612932 C188.090775,32.6610728 188.307476,32.7793587 188.50012,33.0161507 C188.688068,33.2395948 188.790536,33.522535 188.789251,33.8145111 C188.789251,34.6822343 188.360201,35.1159306 187.5021,35.1156 C187.053198,35.1156 186.682658,34.9628256 186.390478,34.6572769 C186.097638,34.3518751 185.951383,33.9625474 185.951713,33.4892939 C185.951713,32.5628778 186.316249,31.7644806 187.04532,31.0941025 C187.853101,30.3649947 188.976293,30.0002938 190.414896,30 C191.266366,30 191.986549,30.0927224 192.579576,30.2754677 C193.414426,30.4656873 194.128475,30.7861664 194.721723,31.236905 C195.745544,32.0171029 196.25751,33.0743845 196.25762,34.40875 C196.25762,35.7246039 195.731569,36.8100751 194.679466,37.6651635 C193.627363,38.5202519 192.199485,39.0230355 190.395833,39.1735143 C190.226751,39.1924665 190.132541,39.2206744 190.11403,39.2585237 C190.11403,39.3338916 190.207964,39.3714838 190.395833,39.3713001 C192.368586,39.7105294 193.725999,40.403202 194.468072,41.4493181 C195.210145,42.4954341 195.703214,44.3850138 195.947278,47.1180572 C196.09739,48.6634308 196.623441,49.4361177 197.525433,49.4361177 C197.807254,49.4361177 197.948165,49.3797386 197.948165,49.2669805 C197.94655,49.2452765 197.936504,49.2250667 197.920178,49.2106749 C197.825968,49.0040742 197.77901,48.8349186 197.779304,48.7032084 C197.779304,48.3084816 197.985959,48.1111182 198.399271,48.1111182 C198.850193,48.1111182 199.075654,48.3460737 199.075654,48.8159848 C199.075508,49.605365 198.417856,50.0000367 197.1027,50 Z M182.552993,30.5492825 C181.387875,30.5492825 180.604776,30.6752815 180.805757,31.1730515 C181.006738,31.6708216 185.502095,39.0324198 186.875522,39.0324198 L186.875522,39.8903363 C186.864503,40.1496065 186.858608,40.4638049 186.858608,40.8397632 L186.858608,47.8251276 C186.858608,48.4471336 186.938457,48.814681 187.098155,48.9277696 C187.257852,49.0408583 187.816795,49.1257391 188.774981,49.1824119 C189.282246,49.2180391 189.535878,49.3067213 189.535878,49.4484586 C189.535878,49.5907836 189.404352,49.6618542 189.141298,49.6616706 L188.803134,49.6616706 L184.857501,49.577102 C183.748688,49.577102 182.837478,49.5958889 182.12387,49.6334627 C181.993338,49.6536578 181.861367,49.6630922 181.72929,49.6616706 C181.466016,49.6616706 181.334508,49.5726945 181.334765,49.3947424 C181.335022,49.2167903 181.55108,49.1178056 181.98294,49.0977883 C183.015981,49.0603614 183.626582,48.9667024 183.814745,48.8168112 C184.002908,48.6669201 184.096842,48.2175772 184.096549,47.4687826 L184.096549,39.9005837 C181.515747,37.0519174 177.367369,30.8281109 177.367369,30.8281109 C177.367369,30.8281109 176.714346,30.5461973 176.028596,30.5461973 C175.342847,30.5461973 175,30.4430622 175,30.2360207 C175,30.0858357 175.150295,30.0106514 175.450885,30.0104678 C175.845429,30.0104678 176.634515,30.029273 177.818145,30.0668836 C178.494546,30.0858357 178.983042,30.0952384 179.283633,30.0950914 C181.463023,30.0668836 182.552718,30.0527796 182.552718,30.0527796 C183.016516,30.0668836 183.510904,30.105045 183.510904,30.2941995 C183.511088,30.4642181 183.191784,30.5492458 182.552993,30.5492825 Z" id="LOGO"></path>
        </g>
    </g>
</svg>